<?xml version="1.0" encoding="UTF-8" standalone="no"?>
<!DOCTYPE svg PUBLIC "-//W3C//DTD SVG 1.1//EN" "http://www.w3.org/Graphics/SVG/1.1/DTD/svg11.dtd">
<svg width="100%" height="100%" viewBox="0 0 449 449" version="1.1" xmlns="http://www.w3.org/2000/svg" xmlns:xlink="http://www.w3.org/1999/xlink" xml:space="preserve" xmlns:serif="http://www.serif.com/" style="fill-rule:evenodd;clip-rule:evenodd;stroke-linejoin:round;stroke-miterlimit:1.41421;">
    <path d="M184.08,0C82.46,0 0.08,82.38 0.08,184C0.08,285.62 82.46,368 184.08,368C285.7,368 368.08,285.62 368.08,184C367.992,82.416 285.664,0.088 184.08,0ZM184.08,304C117.806,304 64.08,250.274 64.08,184C64.08,117.726 117.806,64 184.08,64C250.354,64 304.08,117.726 304.08,184C303.992,250.238 250.318,303.912 184.08,304Z" style="fill:white;fill-rule:nonzero;"/>
    <path d="M438.64,393.44L374.64,329.44C362.136,316.936 341.864,316.936 329.36,329.44C316.856,341.944 316.856,362.216 329.36,374.72L393.36,438.72C405.864,451.224 426.136,451.224 438.64,438.72C451.144,426.216 451.144,405.944 438.64,393.44Z" style="fill:white;fill-rule:nonzero;"/>
</svg>
